<svg width="146" height="25" viewBox="0 0 146 25" fill="none" xmlns="http://www.w3.org/2000/svg">
<path d="M31.92 20C31.36 20 31.08 19.72 31.08 19.16V7.28C31.08 6.72 31.36 6.44 31.92 6.44H36.6C37.82 6.44 38.7533 6.76667 39.4 7.42C40.0533 8.06667 40.38 9 40.38 10.22V10.82C40.38 12.04 40.0533 12.9767 39.4 13.63C38.7533 14.2767 37.82 14.6 36.6 14.6H32.76V19.16C32.76 19.72 32.48 20 31.92 20ZM32.76 12.92H36.6C37.36 12.92 37.9 12.76 38.22 12.44C38.54 12.12 38.7 11.58 38.7 10.82V10.22C38.7 9.46667 38.54 8.93 38.22 8.61C37.9 8.28333 37.36 8.12 36.6 8.12H32.76V12.92ZM43.5142 19.92C42.9809 19.7133 42.8209 19.3467 43.0342 18.82L47.7942 7.1C47.9942 6.66 48.3076 6.44 48.7342 6.44H48.7742C49.2076 6.46 49.5009 6.68 49.6542 7.1L54.4942 18.82C54.7076 19.3467 54.5542 19.7133 54.0342 19.92C53.5076 20.1267 53.1409 19.9733 52.9342 19.46L51.8542 16.84H45.6242L44.5942 19.46C44.3876 19.98 44.0276 20.1333 43.5142 19.92ZM46.2842 15.16H51.1642L48.6742 9.1L46.2842 15.16ZM62.2591 20C61.1191 20 60.2291 19.77 59.5891 19.31C58.9557 18.85 58.5591 18.14 58.3991 17.18C58.3724 16.8867 58.4324 16.6667 58.5791 16.52C58.7257 16.3733 58.9391 16.3 59.2191 16.3C59.4991 16.3 59.7024 16.3667 59.8291 16.5C59.9624 16.6333 60.0524 16.84 60.0991 17.12C60.1991 17.58 60.4124 17.8967 60.7391 18.07C61.0724 18.2367 61.5791 18.32 62.2591 18.32H65.1391C65.9991 18.32 66.5824 18.1667 66.8891 17.86C67.2024 17.5467 67.3591 16.9667 67.3591 16.12C67.3591 15.26 67.1991 14.6733 66.8791 14.36C66.5591 14.04 65.9791 13.88 65.1391 13.88H62.6591C61.3991 13.88 60.4624 13.5733 59.8491 12.96C59.2424 12.34 58.9391 11.4 58.9391 10.14C58.9391 8.88667 59.2391 7.95667 59.8391 7.35C60.4457 6.74333 61.3791 6.44 62.6391 6.44H65.0191C66.0791 6.44 66.9091 6.65667 67.5091 7.09C68.1157 7.52333 68.4991 8.18667 68.6591 9.08C68.6991 9.36667 68.6457 9.58667 68.4991 9.74C68.3524 9.88667 68.1324 9.96 67.8391 9.96C67.5724 9.96 67.3724 9.89 67.2391 9.75C67.1057 9.61 67.0191 9.40667 66.9791 9.14C66.8724 8.74667 66.6691 8.48 66.3691 8.34C66.0691 8.19333 65.6191 8.12 65.0191 8.12H62.6391C61.8391 8.12 61.3024 8.26333 61.0291 8.55C60.7557 8.83 60.6191 9.36 60.6191 10.14C60.6191 10.9267 60.7591 11.4667 61.0391 11.76C61.3191 12.0533 61.8591 12.2 62.6591 12.2H65.1391C66.4524 12.2 67.4291 12.52 68.0691 13.16C68.7157 13.8 69.0391 14.7867 69.0391 16.12C69.0391 17.4467 68.7191 18.4267 68.0791 19.06C67.4391 19.6867 66.4591 20 65.1391 20H62.2591ZM78.1067 20C76.9667 20 76.0767 19.77 75.4367 19.31C74.8034 18.85 74.4067 18.14 74.2467 17.18C74.2201 16.8867 74.2801 16.6667 74.4267 16.52C74.5734 16.3733 74.7867 16.3 75.0667 16.3C75.3467 16.3 75.5501 16.3667 75.6767 16.5C75.8101 16.6333 75.9001 16.84 75.9467 17.12C76.0467 17.58 76.2601 17.8967 76.5867 18.07C76.9201 18.2367 77.4267 18.32 78.1067 18.32H80.9867C81.8467 18.32 82.4301 18.1667 82.7367 17.86C83.0501 17.5467 83.2067 16.9667 83.2067 16.12C83.2067 15.26 83.0467 14.6733 82.7267 14.36C82.4067 14.04 81.8267 13.88 80.9867 13.88H78.5067C77.2467 13.88 76.3101 13.5733 75.6967 12.96C75.0901 12.34 74.7867 11.4 74.7867 10.14C74.7867 8.88667 75.0867 7.95667 75.6867 7.35C76.2934 6.74333 77.2267 6.44 78.4867 6.44H80.8667C81.9267 6.44 82.7567 6.65667 83.3567 7.09C83.9634 7.52333 84.3467 8.18667 84.5067 9.08C84.5467 9.36667 84.4934 9.58667 84.3467 9.74C84.2001 9.88667 83.9801 9.96 83.6867 9.96C83.4201 9.96 83.2201 9.89 83.0867 9.75C82.9534 9.61 82.8667 9.40667 82.8267 9.14C82.7201 8.74667 82.5167 8.48 82.2167 8.34C81.9167 8.19333 81.4667 8.12 80.8667 8.12H78.4867C77.6867 8.12 77.1501 8.26333 76.8767 8.55C76.6034 8.83 76.4667 9.36 76.4667 10.14C76.4667 10.9267 76.6067 11.4667 76.8867 11.76C77.1667 12.0533 77.7067 12.2 78.5067 12.2H80.9867C82.3001 12.2 83.2767 12.52 83.9167 13.16C84.5634 13.8 84.8867 14.7867 84.8867 16.12C84.8867 17.4467 84.5667 18.4267 83.9267 19.06C83.2867 19.6867 82.3067 20 80.9867 20H78.1067ZM91.4044 20C90.8444 20 90.5644 19.72 90.5644 19.16V7.28C90.5644 6.72 90.8444 6.44 91.4044 6.44H96.0844C97.3044 6.44 98.2377 6.76667 98.8844 7.42C99.5377 8.06667 99.8644 9 99.8644 10.22V10.82C99.8644 12.04 99.5377 12.9767 98.8844 13.63C98.2377 14.2767 97.3044 14.6 96.0844 14.6H92.2444V19.16C92.2444 19.72 91.9644 20 91.4044 20ZM92.2444 12.92H96.0844C96.8444 12.92 97.3844 12.76 97.7044 12.44C98.0244 12.12 98.1844 11.58 98.1844 10.82V10.22C98.1844 9.46667 98.0244 8.93 97.7044 8.61C97.3844 8.28333 96.8444 8.12 96.0844 8.12H92.2444V12.92ZM108.83 20C107.303 20 106.173 19.6367 105.44 18.91C104.713 18.1767 104.35 17.0467 104.35 15.52V10.9C104.35 9.36 104.717 8.23 105.45 7.51C106.183 6.78333 107.31 6.42667 108.83 6.44H111.23C112.763 6.44 113.893 6.80333 114.62 7.53C115.347 8.25667 115.71 9.38667 115.71 10.92V15.52C115.71 17.0467 115.347 18.1767 114.62 18.91C113.893 19.6367 112.763 20 111.23 20H108.83ZM108.83 18.32H111.23C111.943 18.32 112.503 18.2367 112.91 18.07C113.317 17.8967 113.603 17.6067 113.77 17.2C113.943 16.7933 114.03 16.2333 114.03 15.52V10.92C114.03 10.2133 113.943 9.65667 113.77 9.25C113.603 8.84333 113.317 8.55333 112.91 8.38C112.503 8.20667 111.943 8.12 111.23 8.12H108.83C108.123 8.11333 107.567 8.19333 107.16 8.36C106.753 8.52667 106.463 8.81333 106.29 9.22C106.117 9.62667 106.03 10.1867 106.03 10.9V15.52C106.03 16.2333 106.113 16.7933 106.28 17.2C106.453 17.6067 106.743 17.8967 107.15 18.07C107.557 18.2367 108.117 18.32 108.83 18.32ZM130.101 20.04C129.881 20.18 129.671 20.2233 129.471 20.17C129.271 20.1167 129.101 19.98 128.961 19.76L125.861 14.6H123.061V19.16C123.061 19.72 122.781 20 122.221 20C121.661 20 121.381 19.72 121.381 19.16V7.28C121.381 6.72 121.661 6.44 122.221 6.44H126.901C128.121 6.44 129.054 6.76667 129.701 7.42C130.354 8.06667 130.681 9 130.681 10.22V10.82C130.681 11.88 130.434 12.7267 129.941 13.36C129.447 13.9867 128.734 14.3767 127.801 14.53L130.421 18.9C130.674 19.3667 130.567 19.7467 130.101 20.04ZM123.061 12.92H126.901C127.661 12.92 128.201 12.76 128.521 12.44C128.841 12.12 129.001 11.58 129.001 10.82V10.22C129.001 9.46667 128.841 8.93 128.521 8.61C128.201 8.28333 127.661 8.12 126.901 8.12H123.061V12.92ZM139.55 20C139.27 20 139.06 19.93 138.92 19.79C138.78 19.65 138.71 19.44 138.71 19.16V8.14H134.83C134.55 8.14 134.34 8.07 134.2 7.93C134.06 7.79 133.99 7.58 133.99 7.3C133.99 7.02 134.06 6.81 134.2 6.67C134.34 6.53 134.55 6.46 134.83 6.46H144.27C144.55 6.46 144.76 6.53 144.9 6.67C145.04 6.81 145.11 7.02 145.11 7.3C145.11 7.58 145.04 7.79 144.9 7.93C144.76 8.07 144.55 8.14 144.27 8.14H140.39V19.16C140.39 19.4267 140.317 19.6333 140.17 19.78C140.03 19.9267 139.823 20 139.55 20Z" fill="url(#paint0_linear_43_26)"/>
<circle cx="12" cy="12" r="11" stroke="url(#paint1_linear_43_26)" stroke-width="2"/>
<path d="M10.74 20V8.52H6.42V6.66H17.26V8.52H12.94V20H10.74Z" fill="url(#paint2_linear_43_26)"/>
<defs>
<linearGradient id="paint0_linear_43_26" x1="29" y1="13" x2="146" y2="13" gradientUnits="userSpaceOnUse">
<stop offset="0.955" stop-color="#A69878"/>
<stop offset="1" stop-color="#403B2E"/>
</linearGradient>
<linearGradient id="paint1_linear_43_26" x1="12" y1="0" x2="12" y2="24" gradientUnits="userSpaceOnUse">
<stop offset="0.515" stop-color="#CFBE96"/>
<stop offset="1" stop-color="#69604C"/>
</linearGradient>
<linearGradient id="paint2_linear_43_26" x1="12" y1="0" x2="12" y2="24" gradientUnits="userSpaceOnUse">
<stop stop-color="#69604C"/>
<stop offset="0.57" stop-color="#CFBD96"/>
</linearGradient>
</defs>
</svg>
